<?xml version="1.0" standalone="no"?><!DOCTYPE svg PUBLIC "-//W3C//DTD SVG 1.1//EN" "http://www.w3.org/Graphics/SVG/1.1/DTD/svg11.dtd"><svg t="1573806390870" class="icon" viewBox="0 0 1024 1024" version="1.1" xmlns="http://www.w3.org/2000/svg" p-id="950" xmlns:xlink="http://www.w3.org/1999/xlink" width="200" height="200"><defs><style type="text/css"></style></defs><path d="M928 1024H96a96 96 0 0 1-96-96V352a96 96 0 0 1 96-96h96V96a96 96 0 0 1 96-96h640a96 96 0 0 1 96 96v832a96 96 0 0 1-96 96z m-32-640V224a96 96 0 0 0-96-96H416a96 96 0 0 0-96 96v544a64 64 0 0 1-128 0V389.888A95.68 95.68 0 0 0 128 480v320a96 96 0 0 0 96 96h576a96 96 0 0 0 96-96V384z m-192 384h-192a64 64 0 0 1 0-128h192a64 64 0 0 1 0 128z m0-192h-192a64 64 0 0 1 0-128h192a64 64 0 0 1 0 128z m0-192h-192a64 64 0 0 1 0-128h192a64 64 0 0 1 0 128z" p-id="951"></path></svg>